<svg xmlns="http://www.w3.org/2000/svg" width="26.013" height="28.809" viewBox="0 0 26.013 28.809">
    <defs><style>.a{fill:none;stroke:#475f77;stroke-linecap:round;stroke-linejoin:round;stroke-width:2px;}</style></defs>
    <g transform="translate(-1.994 -0.964)"><path class="a" d="M19.5,11.13,7.5,4.21" transform="translate(1.5 0.736)"/>
    <path class="a" d="M27,20.666V10a2.667,2.667,0,0,0-1.333-2.307L16.333,2.359a2.667,2.667,0,0,0-2.667,0L4.333,7.693A2.667,2.667,0,0,0,3,10V20.666a2.667,2.667,0,0,0,1.333,2.307l9.333,5.333a2.667,2.667,0,0,0,2.667,0l9.333-5.333A2.667,2.667,0,0,0,27,20.666Z"/>
    <path class="a" d="M3.27,6.96l11.64,6.733L26.55,6.96" transform="translate(0.09 1.653)"/><path class="a" d="M12,25.44V12" transform="translate(3 3.333)"/>
    </g>
</svg>